# xmcd
#
# Track frame offsets:
#	150
#	31642
#	49108
#	79649
#
# Disc length: 1339 seconds
#
# Revision: 1
# Processed by: cddbd v1.5.2PL0 Copyright (c) Steve Scherf et al.
# Submitted via: audiograbber 1.83.01
#
DISCID=20053904
DTITLE=The Blues Company - Ain't Nothing But .... - The Spare Songs
DYEAR=2015
DGENRE=Blues
TTITLE0=Silent Night [live]
TTITLE1=Smoking Gun [live]
TTITLE2=Sugar Daddy [live]
TTITLE3=A Little Bit Of That [live]
EXTD=
EXTT0=
EXTT1=
EXTT2=
EXTT3=
PLAYORDER=
